<svg width="236" height="59" viewBox="0 0 236 59" fill="none" xmlns="http://www.w3.org/2000/svg">
<path d="M5.09473 15.5391L0.796875 19.6523C0.392578 18.2812 0.19043 16.9189 0.19043 15.5654C0.19043 11.0303 1.87793 7.3916 5.25293 4.64941C8.62793 1.90723 13.1104 0.536133 18.7002 0.536133H20.7832C19.9922 4.56152 19.5176 7.26855 19.3594 8.65723L17.9355 21.5508L17.5928 24.4775C17.2939 26.9736 16.749 28.7754 15.958 29.8828C15.1846 30.9902 13.6904 32.0713 11.4756 33.126L19.1221 33.5215L15.958 36.5801L3.11719 36L6.49219 32.7305L9.36621 33.0469C11.5107 31.6934 12.8291 28.9248 13.3213 24.7412L13.6113 22.1836L15.6416 3.72656H14.8242C7.51172 3.72656 3.85547 6.14355 3.85547 10.9775C3.85547 12.4893 4.26855 14.0098 5.09473 15.5391ZM31.5938 35.0771L27.665 36.6855L27.7441 35.9473L27.9551 33.9961L28.166 32.1504L29.5371 19.916L29.6953 18.5186C29.8008 17.4287 29.8535 16.5498 29.8535 15.8818C29.8535 14.7568 29.5723 14.1943 29.0098 14.1943C27.6914 14.1943 26.2764 15.6885 24.7646 18.6768C24.3604 18.3428 24.1582 18.0527 24.1582 17.8066C24.1582 16.752 25.1162 15.3193 27.0322 13.5088C28.9658 11.6807 30.4863 10.7666 31.5938 10.7666C33.1055 10.7666 33.8613 11.7334 33.8613 13.667C33.8613 14.1592 33.8174 14.8184 33.7295 15.6445L33.5186 17.7803L33.3076 19.5732L33.0967 21.4453C35.1709 18.3516 37.4385 15.8027 39.8994 13.7988C42.3779 11.7773 44.4873 10.7666 46.2275 10.7666C47.9326 10.7666 48.7852 11.9531 48.7852 14.3262C48.7852 15.0469 48.6885 16.1279 48.4951 17.5693L47.0713 27.4043C46.79 29.373 46.6494 30.9287 46.6494 32.0713C46.6494 32.9854 46.8955 33.4424 47.3877 33.4424C48.6006 33.4424 50.0947 31.8252 51.8701 28.5908C52.292 28.8545 52.5029 29.127 52.5029 29.4082C52.5029 30.5508 51.5186 32.0537 49.5498 33.917C47.5986 35.7627 46.0078 36.6855 44.7773 36.6855C43.4062 36.6855 42.7207 35.7012 42.7207 33.7324C42.7207 32.291 42.9053 30.2959 43.2744 27.7471L44.1973 21.3662C44.4961 19.292 44.6455 17.6484 44.6455 16.4355C44.6455 15.0469 44.1621 14.3525 43.1953 14.3525C40.9453 14.3525 38.6602 15.8818 36.3398 18.9404C34.0371 21.9814 32.6924 25.251 32.3057 28.749L31.5938 35.0771ZM53.2939 35.2617L56.9326 32.2822C58.3037 33.7412 60.0264 34.4707 62.1006 34.4707C64.6318 34.4707 65.8975 33.249 65.8975 30.8057C65.8975 29.4521 64.7373 27.5625 62.417 25.1367L60.9141 23.5811C58.7168 21.2783 57.6182 19.415 57.6182 17.9912C57.6182 15.9521 58.4971 14.2383 60.2549 12.8496C62.0303 11.4609 64.21 10.7666 66.7939 10.7666C68.2002 10.7666 69.7383 11.0303 71.4082 11.5576L68.2441 14.4844C66.9082 13.4824 65.4229 12.9814 63.7881 12.9814C61.8721 12.9814 60.9141 13.7812 60.9141 15.3809C60.9141 16.5234 61.9775 18.2021 64.1045 20.417L65.7393 22.1572C68.165 24.6885 69.3779 26.7275 69.3779 28.2744C69.3779 30.4893 68.3145 32.4492 66.1875 34.1543C64.0605 35.8418 61.6084 36.6855 58.8311 36.6855C56.8623 36.6855 55.0166 36.2109 53.2939 35.2617ZM82.4297 14.5107L81.1113 26.165C80.8828 28.2568 80.7686 29.8037 80.7686 30.8057C80.7686 32.792 81.4453 33.7852 82.7988 33.7852C84.2578 33.7852 85.7695 32.5898 87.334 30.1992C87.5977 30.5332 87.7295 30.832 87.7295 31.0957C87.7295 32.0801 86.8594 33.2578 85.1191 34.6289C83.3965 36 81.9111 36.6855 80.6631 36.6855C78.167 36.6855 76.9189 35.0859 76.9189 31.8867C76.9189 30.709 77.0684 28.8018 77.3672 26.165L78.6592 14.5107H73.0957L76.1807 11.4521H79.002L79.5557 6.65332L83.4316 5.36133L82.7725 11.4521H93.9521L90.8672 14.5107H82.4297ZM109.271 25.5322C107.285 28.8018 105.097 31.4824 102.706 33.5742C100.333 35.6484 98.2676 36.6855 96.5098 36.6855C94.1016 36.6855 92.8975 34.7432 92.8975 30.8584C92.8975 25.5146 94.6465 20.8916 98.1445 16.9893C101.66 13.0693 105.817 11.1094 110.616 11.1094C112.444 11.1094 114 11.3379 115.283 11.7949C115.195 12.1113 115.143 12.3047 115.125 12.375L114.809 13.7725C114.598 14.7393 114.483 15.3018 114.466 15.46L112.778 27.1143L112.541 28.8018C112.312 30.4717 112.198 31.5879 112.198 32.1504C112.198 32.9062 112.418 33.2842 112.857 33.2842C114.334 33.2842 115.846 31.6318 117.393 28.3271C117.867 28.6084 118.104 28.8896 118.104 29.1709C118.104 29.7861 117.349 31.0254 115.837 32.8887C113.78 35.4199 111.873 36.6855 110.115 36.6855C108.832 36.6855 108.19 35.8242 108.19 34.1016C108.19 33.5742 108.252 32.8447 108.375 31.9131L108.639 29.8037L108.981 27.4834L109.271 25.5322ZM110.774 15.0645C109.175 14.168 107.558 13.7197 105.923 13.7197C103.462 13.7197 101.396 15.2227 99.7266 18.2285C98.0566 21.2344 97.2217 24.9609 97.2217 29.4082C97.2217 31.6934 97.8984 32.8359 99.252 32.8359C100.816 32.8359 102.706 31.6406 104.921 29.25C107.909 26.0332 109.72 22.2539 110.353 17.9121L110.774 15.0645ZM138.012 15.0645C136.746 14.168 135.155 13.7197 133.239 13.7197C130.831 13.7197 128.792 15.2314 127.122 18.2549C125.47 21.2783 124.644 24.9961 124.644 29.4082C124.644 31.6934 125.32 32.8359 126.674 32.8359C128.221 32.8359 130.11 31.6406 132.343 29.25C135.437 25.9277 137.212 22.166 137.669 17.9648L138.012 15.0645ZM142.521 11.7949C142.433 12.1113 142.38 12.3047 142.362 12.375L142.072 13.7725C141.844 14.792 141.721 15.3545 141.703 15.46L140.648 25.1104C140.473 26.7275 140.288 29.5664 140.095 33.627C139.849 38.707 139.365 42.4688 138.645 44.9121C137.924 47.3555 136.649 49.5352 134.821 51.4512C130.638 55.8633 126.182 58.0693 121.453 58.0693C119.168 58.0693 117.27 57.2959 115.758 55.749C114.246 54.2021 113.49 52.2686 113.49 49.9482C113.49 45.2197 116.382 40.5527 122.165 35.9473C120.935 34.9805 120.319 33.2754 120.319 30.832C120.319 25.5234 122.068 20.9092 125.566 16.9893C129.064 13.0693 133.195 11.1094 137.959 11.1094C139.98 11.1094 141.501 11.3379 142.521 11.7949ZM136.825 25.6377C132.079 32.8799 127.781 36.501 123.932 36.501C123.773 36.501 123.492 36.4834 123.088 36.4482C119.01 40.5615 116.971 44.2266 116.971 47.4434C116.971 49.6406 117.744 51.4775 119.291 52.9541C120.855 54.4482 122.789 55.1953 125.092 55.1953C128.643 55.1953 131.367 53.6309 133.266 50.502C134.707 48.0938 135.709 42.3545 136.271 33.2842C136.482 29.8564 136.667 27.3076 136.825 25.6377ZM154.438 21.8672C158.341 14.4668 162.182 10.7666 165.961 10.7666C166.945 10.7666 167.93 10.9951 168.914 11.4521L165.196 15.5127C164.634 15.1963 163.913 15.0381 163.034 15.0381C161.206 15.0381 159.272 16.5234 157.233 19.4941C155.212 22.4473 154.025 25.5234 153.674 28.7227L152.962 35.1562L149.06 36.4746L149.139 35.6836L149.323 33.9697L149.534 32.2559L150.905 19.7051L151.063 18.334C151.187 17.2969 151.248 16.4531 151.248 15.8027C151.248 14.7305 150.949 14.1943 150.352 14.1943C148.945 14.1943 147.548 15.6973 146.159 18.7031C145.72 18.3691 145.509 18.0264 145.526 17.6748C145.579 16.6025 146.555 15.1875 148.453 13.4297C150.369 11.6543 151.881 10.7666 152.988 10.7666C154.482 10.7666 155.229 11.751 155.229 13.7197C155.229 14.1943 155.186 14.8359 155.098 15.6445L154.913 17.4902L154.676 19.7051L154.438 21.8672ZM183.943 25.5322C181.957 28.8018 179.769 31.4824 177.378 33.5742C175.005 35.6484 172.939 36.6855 171.182 36.6855C168.773 36.6855 167.569 34.7432 167.569 30.8584C167.569 25.5146 169.318 20.8916 172.816 16.9893C176.332 13.0693 180.489 11.1094 185.288 11.1094C187.116 11.1094 188.672 11.3379 189.955 11.7949C189.867 12.1113 189.814 12.3047 189.797 12.375L189.48 13.7725C189.27 14.7393 189.155 15.3018 189.138 15.46L187.45 27.1143L187.213 28.8018C186.984 30.4717 186.87 31.5879 186.87 32.1504C186.87 32.9062 187.09 33.2842 187.529 33.2842C189.006 33.2842 190.518 31.6318 192.064 28.3271C192.539 28.6084 192.776 28.8896 192.776 29.1709C192.776 29.7861 192.021 31.0254 190.509 32.8887C188.452 35.4199 186.545 36.6855 184.787 36.6855C183.504 36.6855 182.862 35.8242 182.862 34.1016C182.862 33.5742 182.924 32.8447 183.047 31.9131L183.311 29.8037L183.653 27.4834L183.943 25.5322ZM185.446 15.0645C183.847 14.168 182.229 13.7197 180.595 13.7197C178.134 13.7197 176.068 15.2227 174.398 18.2285C172.729 21.2344 171.894 24.9609 171.894 29.4082C171.894 31.6934 172.57 32.8359 173.924 32.8359C175.488 32.8359 177.378 31.6406 179.593 29.25C182.581 26.0332 184.392 22.2539 185.024 17.9121L185.446 15.0645ZM215.874 35.0771L211.972 36.6855L212.051 35.9473L212.262 33.9961L212.446 32.1504L213.765 20.3115L213.949 18.9668C214.02 18.2637 214.055 17.5781 214.055 16.9102C214.055 15.2051 213.536 14.3525 212.499 14.3525C210.882 14.3525 208.992 16.0049 206.83 19.3096C204.686 22.6143 203.446 25.7607 203.112 28.749L202.427 35.0771L198.498 36.6855L198.577 35.9473L198.788 33.9961L198.999 32.1504L200.344 19.916L200.502 18.5186C200.625 17.4287 200.687 16.5498 200.687 15.8818C200.687 14.7568 200.405 14.1943 199.843 14.1943C198.524 14.1943 197.101 15.6885 195.571 18.6768C195.167 18.3428 194.965 18.0527 194.965 17.8066C194.965 16.752 195.923 15.3193 197.839 13.5088C199.772 11.6807 201.302 10.7666 202.427 10.7666C203.938 10.7666 204.694 11.7334 204.694 13.667C204.694 14.1592 204.65 14.8184 204.562 15.6445L204.352 17.7803L204.141 19.5732L203.93 21.4453L204.668 20.2852C208.605 13.9395 212.271 10.7666 215.663 10.7666C217.298 10.7666 218.115 11.9443 218.115 14.2998C218.115 14.7041 218.045 15.5566 217.904 16.8574L217.641 19.2832L217.271 22.5791C218.906 19.1865 220.84 16.374 223.072 14.1416C225.322 11.8916 227.326 10.7666 229.084 10.7666C230.824 10.7666 231.694 11.8916 231.694 14.1416C231.694 15.1084 231.598 16.2598 231.404 17.5957L230.007 27.3779C229.708 29.3994 229.559 30.9639 229.559 32.0713C229.559 33.0029 229.813 33.4688 230.323 33.4688C230.921 33.4688 231.668 32.9678 232.564 31.9658C233.479 30.9639 234.208 29.8301 234.753 28.5645C235.228 28.8809 235.465 29.1709 235.465 29.4346C235.465 30.542 234.48 32.0273 232.512 33.8906C230.561 35.7539 229.005 36.6855 227.845 36.6855C226.351 36.6855 225.604 35.6836 225.604 33.6797C225.604 32.4141 225.797 30.4541 226.184 27.7998L227.106 21.4453C227.142 21.2168 227.203 20.7158 227.291 19.9424C227.326 19.626 227.388 19.0898 227.476 18.334C227.563 17.5781 227.607 16.998 227.607 16.5938C227.607 15.0996 227.115 14.3525 226.131 14.3525C224.479 14.3525 222.554 16.0049 220.356 19.3096C218.177 22.6143 216.92 25.7607 216.586 28.749L215.874 35.0771Z" fill="black"/>
</svg>
